<?xml version="1.0" encoding="utf-8"?>
<svg viewBox="0 0 500 500" width="500" height="500" xmlns="http://www.w3.org/2000/svg">
  <defs>
    <clipPath id="clip-0">
      <rect width="500" height="500" style="paint-order: fill; pointer-events: none; fill: rgba(255, 255, 255, 0);" ry="127" rx="127"/>
    </clipPath>
  </defs>
  <rect width="500" height="500" style="paint-order: fill; pointer-events: none;" ry="127" rx="127"/>
  <g style="pointer-events: none; clip-path: url(#clip-0);">
    <path d="M 249.994 73.951 L 207.182 0 L 192.283 0 L 0 0 L 7.488 12.989 L 199.794 12.989 L 249.994 99.987 L 300.217 12.989 L 492.5 12.989 L 500 0 L 307.704 0 L 292.816 0 L 249.994 73.951 Z" style="paint-order: fill; fill-rule: nonzero; fill: rgb(38, 108, 77);"/>
    <path d="M 249.994 259.799 L 107.414 12.986 L 99.911 0 L 0 0 L 7.5 12.991 L 249.994 433.007 L 499.987 0 L 400 0 L 249.994 259.799 Z" style="paint-order: fill; fill-rule: nonzero; fill: rgb(38, 108, 77);"/>
  </g>
  <g id="tachidesk" transform="matrix(1.250385, 0, 0, 1.250385, -0.045128, -0.370211)" style="pointer-events: none;">
    <path id="path0" d="M190.279 76.293 L 174.894 76.666 175.155 80.813 C 175.298 83.094,175.585 86.895,175.792 89.258 C 175.999 91.621,176.280 97.378,176.416 102.051 L 176.664 110.547 129.536 110.547 L 82.408 110.547 82.625 128.809 C 82.745 138.853,82.940 148.188,83.059 149.555 L 83.275 152.040 85.876 151.814 C 113.263 149.434,237.885 149.494,304.492 151.920 C 313.645 152.253,315.116 152.227,315.625 151.724 C 316.127 151.227,316.229 148.265,316.339 130.943 L 316.467 110.742 271.246 110.879 C 235.075 110.989,225.446 110.913,223.129 110.501 L 220.232 109.986 220.565 99.036 C 220.975 85.575,220.907 78.268,220.358 76.855 L 219.941 75.781 212.803 75.851 C 208.876 75.889,198.741 76.088,190.279 76.293 M148.828 157.766 C 148.506 157.953,147.100 158.491,145.703 158.961 C 144.307 159.432,142.813 159.958,142.383 160.130 C 140.818 160.756,139.611 161.267,137.797 162.070 C 136.779 162.522,135.802 162.891,135.627 162.891 C 135.335 162.891,129.949 164.993,127.148 166.200 C 126.504 166.478,125.361 166.933,124.609 167.211 C 120.516 168.723,114.523 171.686,113.359 172.772 C 111.974 174.065,112.244 175.010,120.282 197.070 C 121.320 199.919,121.626 200.850,124.128 208.789 C 127.670 220.027,128.504 222.798,129.531 226.758 C 130.697 231.251,130.885 231.952,131.997 235.938 C 132.446 237.549,132.996 239.658,133.218 240.625 C 133.975 243.923,135.572 250.583,135.934 251.953 C 136.133 252.705,136.474 254.199,136.692 255.273 C 137.467 259.093,138.697 264.669,139.062 266.016 C 139.265 266.768,139.715 268.701,140.061 270.313 C 140.833 273.910,141.295 275.115,141.786 274.811 C 141.993 274.683,143.355 274.248,144.812 273.845 C 146.269 273.441,150.449 272.064,154.102 270.785 C 161.425 268.221,161.954 268.033,163.086 267.597 C 163.516 267.431,164.570 267.083,165.430 266.823 C 166.991 266.351,170.595 265.058,172.070 264.441 C 172.500 264.261,173.555 263.902,174.414 263.644 C 175.273 263.385,176.328 263.039,176.758 262.876 C 177.188 262.713,178.154 262.368,178.906 262.109 C 179.658 261.851,180.625 261.498,181.055 261.324 C 181.484 261.150,182.140 260.911,182.513 260.792 C 183.210 260.570,183.193 259.722,182.431 256.836 C 182.260 256.191,181.905 254.609,181.641 253.320 C 179.277 241.779,171.476 215.519,161.277 184.766 C 152.270 157.609,151.602 156.160,148.828 157.766 M243.210 159.473 C 242.309 161.344,239.639 170.935,237.854 178.711 C 237.460 180.430,236.777 183.154,236.337 184.766 C 235.897 186.377,235.096 189.453,234.557 191.602 C 233.509 195.777,230.709 206.169,228.821 212.891 C 228.187 215.146,227.167 218.838,226.555 221.094 C 220.782 242.349,212.317 268.928,208.917 276.475 C 208.309 277.823,207.813 279.011,207.813 279.116 C 207.813 279.938,205.110 283.206,204.297 283.367 C 201.683 283.884,169.537 284.031,145.117 283.639 C 108.304 283.048,80.799 282.455,77.834 282.189 C 74.259 281.867,74.456 280.631,74.300 304.434 L 74.168 324.688 76.244 324.450 C 83.378 323.631,139.677 322.995,251.563 322.470 C 277.666 322.347,305.044 322.143,312.402 322.016 L 325.781 321.784 325.781 301.278 L 325.781 280.771 322.949 280.990 C 301.820 282.625,252.352 282.951,250.866 281.465 C 250.779 281.378,251.536 279.404,252.549 277.079 C 256.454 268.114,258.723 262.274,261.932 252.930 C 262.522 251.211,263.434 248.667,263.957 247.277 C 264.481 245.887,267.088 238.152,269.751 230.089 C 272.414 222.027,274.876 214.639,275.222 213.672 C 275.567 212.705,276.284 210.508,276.815 208.789 C 277.345 207.070,278.643 202.939,279.698 199.609 C 284.823 183.445,285.547 181.079,285.553 180.503 C 285.556 180.162,285.840 179.092,286.183 178.125 C 286.923 176.045,288.271 170.758,288.275 169.922 C 288.277 169.348,285.651 168.370,280.469 167.015 C 279.287 166.707,277.090 166.077,275.586 165.617 C 272.304 164.612,271.435 164.364,267.383 163.281 C 264.356 162.472,262.802 162.043,260.352 161.337 C 258.708 160.864,254.752 159.780,253.125 159.356 C 252.373 159.161,250.508 158.645,248.981 158.211 C 244.705 156.996,244.368 157.069,243.210 159.473 " stroke="none" fill-rule="evenodd" style="fill: rgb(255, 255, 255);"/>
    <path id="path1" d="" stroke="none" fill-rule="evenodd" style="fill: rgb(255, 255, 255);"/>
    <path id="path2" d="" stroke="none" fill-rule="evenodd" style="fill: rgb(255, 255, 255);"/>
    <path id="path3" d="" stroke="none" fill-rule="evenodd" style="fill: rgb(255, 255, 255);"/>
    <path id="path4" d="" stroke="none" fill-rule="evenodd" style="fill: rgb(255, 255, 255);"/>
  </g>
</svg>